<?xml version="1.0" standalone="no"?>
<!DOCTYPE svg PUBLIC "-//W3C//DTD SVG 20010904//EN"
 "http://www.w3.org/TR/2001/REC-SVG-20010904/DTD/svg10.dtd">
<svg version="1.0" xmlns="http://www.w3.org/2000/svg"
 width="260.000000pt" height="260.000000pt" viewBox="0 0 260.000000 260.000000"
 preserveAspectRatio="xMidYMid meet">
<metadata>
Created by potrace 1.14, written by Peter Selinger 2001-2017
</metadata>
<g transform="translate(0.000000,260.000000) scale(0.100000,-0.100000)"
fill="#000000" stroke="none">
<path d="M960 2552 c-94 -47 -140 -72 -150 -82 -3 -3 -30 -24 -60 -46 -122
-91 -229 -222 -303 -370 -81 -162 -110 -287 -111 -469 0 -151 6 -198 41 -315
93 -316 322 -568 634 -699 75 -31 235 -71 304 -76 86 -6 78 1 71 -57 -9 -67
-14 -73 -56 -74 -45 -1 -193 -14 -217 -18 -71 -14 -134 -40 -145 -59 -7 -12
-13 -60 -14 -106 -1 -77 1 -86 22 -106 54 -50 229 -74 519 -69 105 1 204 5
220 8 17 3 58 11 93 17 34 6 77 21 95 33 32 22 32 22 35 118 3 94 2 97 -24
117 -28 22 -72 36 -141 45 -24 3 -62 9 -85 12 -24 3 -69 7 -101 9 -32 2 -61 6
-65 9 -3 4 -7 21 -8 38 -2 17 -5 42 -8 54 -6 24 3 28 89 39 73 8 195 45 293
88 112 49 117 58 77 136 -27 55 -39 60 -86 36 -51 -27 -65 -2 -23 40 14 14 24
31 21 38 -2 7 18 28 45 47 154 106 284 299 324 482 19 89 24 249 10 338 -25
159 -99 310 -212 432 -41 44 -137 128 -147 128 -3 0 -25 13 -49 28 -115 76
-258 115 -413 114 -119 0 -142 -3 -225 -26 -30 -8 -57 -12 -60 -7 -9 13 -46
19 -63 9 -12 -6 -19 -3 -26 10 -8 16 -4 21 25 35 19 10 37 24 40 32 11 27 -42
136 -65 135 -3 0 -49 -22 -101 -48z m60 -177 c10 -12 7 -17 -14 -26 -25 -12
-30 -20 -27 -46 1 -7 -24 -31 -56 -54 -109 -80 -194 -177 -247 -284 -99 -199
-118 -432 -53 -652 71 -239 294 -464 537 -542 19 -6 37 -11 40 -10 3 0 18 -4
33 -10 80 -31 246 -32 371 -2 65 16 92 18 102 10 7 -6 28 -9 46 -7 23 2 33 -1
36 -13 2 -12 -18 -22 -85 -42 -538 -161 -1095 166 -1203 706 -59 297 56 640
280 837 29 25 60 53 71 63 10 9 22 17 26 17 3 0 14 6 22 14 17 15 92 56 102
56 4 0 12 -7 19 -15z"/>
</g>
</svg>
